<mxfile host="app.diagrams.net" modified="2023-08-13T03:17:39.760Z" agent="Mozilla/5.0 (Macintosh; Intel Mac OS X 10_15_7) AppleWebKit/537.36 (KHTML, like Gecko) Chrome/115.0.0.0 Safari/537.36" etag="MtdtafDHmOdiaa0VYl_Z" version="21.6.6" type="github">
  <diagram name="페이지-1" id="mGUCeaseNl-uqr_AVyh4">
    <mxGraphModel dx="1242" dy="822" grid="1" gridSize="10" guides="1" tooltips="1" connect="1" arrows="1" fold="1" page="1" pageScale="1" pageWidth="827" pageHeight="1169" math="0" shadow="0">
      <root>
        <mxCell id="0" />
        <mxCell id="1" parent="0" />
        <mxCell id="qF_m5nAh8SEDu760b34n-5" value="Private subnet" style="points=[[0,0],[0.25,0],[0.5,0],[0.75,0],[1,0],[1,0.25],[1,0.5],[1,0.75],[1,1],[0.75,1],[0.5,1],[0.25,1],[0,1],[0,0.75],[0,0.5],[0,0.25]];outlineConnect=0;gradientColor=none;html=1;whiteSpace=wrap;fontSize=12;fontStyle=0;container=1;pointerEvents=0;collapsible=0;recursiveResize=0;shape=mxgraph.aws4.group;grIcon=mxgraph.aws4.group_security_group;grStroke=0;strokeColor=#147EBA;fillColor=#E6F2F8;verticalAlign=top;align=left;spacingLeft=30;fontColor=#147EBA;dashed=0;" vertex="1" parent="1">
          <mxGeometry x="110" y="300" width="240" height="220" as="geometry" />
        </mxCell>
        <mxCell id="qF_m5nAh8SEDu760b34n-2" value="" style="outlineConnect=0;dashed=0;verticalLabelPosition=bottom;verticalAlign=top;align=center;html=1;shape=mxgraph.aws3.instance;fillColor=#F58534;gradientColor=none;" vertex="1" parent="qF_m5nAh8SEDu760b34n-5">
          <mxGeometry x="90" y="78.5" width="60" height="63" as="geometry" />
        </mxCell>
        <mxCell id="qF_m5nAh8SEDu760b34n-1" value="" style="outlineConnect=0;dashed=0;verticalLabelPosition=bottom;verticalAlign=top;align=center;html=1;shape=mxgraph.aws3.network_access_controllist;fillColor=#F58534;gradientColor=none;" vertex="1" parent="qF_m5nAh8SEDu760b34n-5">
          <mxGeometry x="200" y="69.5" width="69" height="72" as="geometry" />
        </mxCell>
        <mxCell id="qF_m5nAh8SEDu760b34n-6" value="Security group" style="fillColor=none;strokeColor=#DD3522;verticalAlign=top;fontStyle=0;fontColor=#DD3522;whiteSpace=wrap;html=1;" vertex="1" parent="qF_m5nAh8SEDu760b34n-5">
          <mxGeometry x="55" y="45" width="130" height="130" as="geometry" />
        </mxCell>
      </root>
    </mxGraphModel>
  </diagram>
</mxfile>
